<svg xmlns="http://www.w3.org/2000/svg"  viewBox="0 0 100 100" width="100px" height="100px"><path fill="#f290ba" d="M69.228,81.654h-39c-6.6,0-12-5.4-12-12v-39c0-6.6,5.4-12,12-12h39c6.6,0,12,5.4,12,12v39C81.228,76.254,75.828,81.654,69.228,81.654z"/><path fill="#1f212b" d="M69.228,82.654h-39c-7.168,0-13-5.832-13-13v-39c0-7.168,5.832-13,13-13h39c7.168,0,13,5.832,13,13v39C82.228,76.822,76.396,82.654,69.228,82.654z M30.228,19.654c-6.065,0-11,4.935-11,11v39c0,6.065,4.935,11,11,11h39c6.065,0,11-4.935,11-11v-39c0-6.065-4.935-11-11-11H30.228z"/><path fill="#f290ba" d="M76.728,48.154v18.663c0,5.685-4.652,10.337-10.337,10.337H33.066c-5.685,0-10.337-4.652-10.337-10.337V33.491c0-5.685,4.652-10.337,10.337-10.337h33.663"/><path fill="#1f212b" d="M66.391,77.654H33.065c-5.976,0-10.837-4.861-10.837-10.837V33.49c0-5.976,4.861-10.837,10.837-10.837h33.663c0.276,0,0.5,0.224,0.5,0.5s-0.224,0.5-0.5,0.5H33.065c-5.424,0-9.837,4.413-9.837,9.837v33.326c0,5.424,4.413,9.837,9.837,9.837h33.326c5.424,0,9.837-4.413,9.837-9.837V48.154c0-0.276,0.224-0.5,0.5-0.5s0.5,0.224,0.5,0.5v18.663C77.228,72.792,72.367,77.654,66.391,77.654z"/><path fill="#1f212b" d="M76.728 46.654c-.276 0-.5-.224-.5-.5v-4c0-.276.224-.5.5-.5s.5.224.5.5v4C77.228 46.43 77.005 46.654 76.728 46.654zM76.728 40.654c-.276 0-.5-.224-.5-.5v-2c0-.276.224-.5.5-.5s.5.224.5.5v2C77.228 40.43 77.005 40.654 76.728 40.654z"/><path fill="#ee538f" d="M49.728 36.154A14 14 0 1 0 49.728 64.154A14 14 0 1 0 49.728 36.154Z"/><path fill="#1f212b" d="M49.728,64.654c-7.995,0-14.5-6.505-14.5-14.5s6.505-14.5,14.5-14.5s14.5,6.505,14.5,14.5S57.723,64.654,49.728,64.654z M49.728,36.654c-7.444,0-13.5,6.056-13.5,13.5s6.056,13.5,13.5,13.5s13.5-6.056,13.5-13.5S57.173,36.654,49.728,36.654z"/><path fill="#1f212b" d="M55.606,62.745c-0.006,0-0.012,0-0.019,0c-0.276-0.01-0.491-0.242-0.481-0.518c0.383-10.328-8.791-24.353-10.377-24.641c-0.265-0.048-0.462-0.298-0.424-0.564c0.038-0.266,0.257-0.455,0.526-0.431c2.477,0.247,11.65,15.521,11.274,25.673C56.096,62.533,55.874,62.745,55.606,62.745z"/><path fill="#1f212b" d="M40.213 48.568c-1.772 0-3.112-.13-3.733-.25-.191-.037-.481-.093-.581-.396-.087-.262.056-.545.318-.631.136-.046.277-.029.393.034 1.347.356 16.017 1.332 23.021-7.01.178-.212.493-.239.704-.062.212.177.239.493.062.704C55.021 47.36 45.61 48.568 40.213 48.568zM39.601 59.074c-.116 0-.232-.04-.327-.122-.209-.181-.231-.496-.052-.705 7.322-8.479 23.146-8.531 24.395-8.291.176.034.382.183.439.352.09.261-.05.545-.311.635-.12.041-.245.034-.354-.012-1.351-.215-16.568.044-23.411 7.969C39.881 59.015 39.741 59.074 39.601 59.074z"/></svg>